<?xml version="1.0" encoding="UTF-8"?>
<svg id="Camada_2" xmlns="http://www.w3.org/2000/svg" viewBox="0 0 261.65 229.62">
  <defs>
    <style>
      .cls-1 {
        fill: #fff;
        stroke: #3aa8c1;
        stroke-miterlimit: 10;
        stroke-width: 2px;
      }
    </style>
  </defs>
  <path class="cls-1" d="M1.13,199.41c60-1.15,23.02.18,66.99-1.4,2.64-.09-9.06.09-22.42-11.2,0,0-3.48-36.62-3.86-51.9l-2.22-89.98,71.26,145.54c4.64-10.17,20.29-34.25,31.56-54.66,3.02-5.46,5.06,10.27,16.65,31.92,10.29,19.23,9.52,22.84,17.14,31.41,7.93,8.92,23.21,16.75,34.66,17.77,8.03.71,13.1,2.53,15.7-8.57.55-2.35,6.92-2.25,7.03.75l4.14,10.51c2.79,7.08,10.79,10.9,17.87,8.08,2.01-.8,3.66-1.99,4.55-3.53,1.69-2.93-1.4-8.22-5.09-12.93-4.08-5.22-9.81-8.81-16.17-10.67-1.3-.38-2.33-.88-2.65-1.55-1.83-3.81,9.38-8.7,9.39-17.35,0-6.9-7.12-7.96-8.64-17.7-.83-5.31,1.1-6.26.53-13.03,0,0-.62-7.49-4.53-14.85-9.02-16.97-42.8-21.48-42.8-21.48,0,0,25.7,4.49,39.72-8.43,8.56-7.89,10.51-21.02,11.92-30.45.38-2.55.61-10.38,1.07-26.05.48-16.37.25-17.61,1.21-22.06,2.4-11.07,6.11-13.92,4.32-19.17-.5-1.47-1.78-2.85-3.41-4.11-6.49-4.99-15.71-4.25-21.67,1.36-5.17,4.86-12.55,12.94-22.32,20.46-13.63,10.49-17.49,14.64-30.76,35.12-6.35,9.8-6.86,17.98-11.46,26.07-6.2,10.89-10,23-10,23,0,0-.7,2.11-3.89,5.75-1.12,1.28-2.12,2.67-3.15,4.03-2.33,3.05-6.45,4.51-8.14,7.51-8.03,14.28-15.13,24.56-15.13,24.56,0,0-7.53-14.74-28.13-59.03-21.74-46.74-22.46-68.24-30.45-67.95-25.98.93-50.93,2.83-46.93,2.68.82-.03,13.1,2.53,13.1,2.53.48,27.5.31,22.5,1.31,50.49,1.29,35.98,1.15,31.98,1.52,56.48.31,20-.1,25.02.43,40.01.3,8.24-1.71,8.07-1.71,8.07-1.68,9.07-28.72,14-26.52,13.96Z"/>
  <path class="cls-1" d="M225.83,15.34c4.92,2.56,4.98,15.8,5,21,.01,3.06,0,8.06-2,14-1.41,4.2-2.47,4.91-7,14-3.33,6.69-5,10.08-5,12,0,7.45,6.77,9.86,6,16-.5,4.03-3.88,6.65-7,9-7.92,5.96-16.3,6.97-24,8-30.4,4.06-36.86,6.62-38,4-1.22-2.8,4.55-9.45,11-11,4.25-1.02,5.54.95,13,1,5.32.03,10.08.06,14-3,3.69-2.88,4.73-7.01,6-12,1.32-5.19,2.48-9.79,0-12-3.13-2.78-10.62-.45-11,2-.09.61.2,1.56,7,6,8.56,5.59,11.61,6.37,12,9,.4,2.72-2.29,5.79-5,7-5.01,2.24-10.78-1.56-16-5-5.18-3.41-8.56-5.64-10-10-1.58-4.8-.19-10.3,1-15,.44-1.74.88-3.02,1.03-3.46.43-1.24,2.63-7.39,6.97-12.54,4.76-5.63,10.22-7.85,18-11,8.72-3.54,14.2-5.75,18-3,2.65,1.92,4.17,6.03,3,9-1.64,4.18-8.07,4.81-14,6-21.47,4.29-29.8,14.44-32,12-4.98-5.53,37.3-58.08,49-52Z"/>
  <path class="cls-1" d="M153.83,130.34c9.17-.78,10.55-10.44,18-11,8.39-.63,12.79-.91,13,0,.28,1.26-7.57,4.29-13,6-12.33,3.88-17.19,2.49-19,6-1.09,2.11.02,3.87,5,16,0,0,3.03,7.37,6,15,6.14,15.77,5.76,18.38,9,20,7.27,3.63,18-5.18,19-6,6.9-5.67,8.89-12.94,10-17,1.39-5.09,2.68-9.79,0-13-2.6-3.11-8.29-4.07-12-2-4.56,2.55-2.8,7.83-9,16-2.04,2.69-5.02,6.62-8,6-2.51-.52-4.34-4.12-4-7,.6-5,7.88-8.89,13-7,4.06,1.5,5.45,6.14,6,8,.48,1.61,1.95,6.55-1,11-1.78,2.68-5.19,5.22-9,5-3.28-.19-5.74-2.36-8-5-1.63-1.9-13-21-11-32,.62-3.43,4.08-3.39,27-8,21.18-4.26,25.56-5.17,30-2,5.33,3.81,7.18,10.95,7,16-.34,9.38-7.88,16.11-10,18-4.13,3.69-6.02,3.38-7,6-2.57,6.86,7.54,16.62,10,19,9.64,9.31,17.19,9.59,17,13-.28,4.97-16.68,11.55-26,6-4.72-2.81-4.35-6.78-12-12-4.69-3.2-7.93-3.82-8-6-.09-2.93,5.61-6.37,8-5,1.8,1.03.41,4.03,2,6,4.26,5.27,26.43-1.25,27-9,.26-3.53-3.97-7.26-8-8-5.72-1.05-12.59,3.6-15,12"/>
</svg>